<svg width="400" height="400" viewBox="422 -20 369 369" fill="none" xmlns="http://www.w3.org/2000/svg">
<path d="M751.663 158.014C751.663 223.466 698.604 276.525 633.153 276.525C567.701 276.525 514.642 223.466 514.642 158.014L514.642 2.19464C514.642 0.982574 515.625 1.71799e-07 516.837 3.83723e-07L749.469 4.10583e-05C750.681 4.12703e-05 751.663 0.982615 751.663 2.19468L751.663 158.014Z" fill="#2E110E"/>
<path d="M734.106 175.571C734.106 241.023 681.047 294.082 615.596 294.082C550.144 294.082 497.085 241.023 497.085 175.571L497.085 19.7518C497.085 18.5397 498.068 17.5571 499.28 17.5571L731.911 17.5572C733.124 17.5572 734.106 18.5397 734.106 19.7518L734.106 175.571Z" fill="#5D221C"/>
<path d="M716.549 193.128C716.549 258.58 663.49 311.639 598.038 311.639C532.587 311.639 479.528 258.58 479.528 193.128L479.528 37.3089C479.528 36.0968 480.511 35.1143 481.723 35.1143L714.354 35.1143C715.566 35.1143 716.549 36.0969 716.549 37.3089L716.549 193.128Z" fill="#A33B32"/>
<path d="M698.992 210.685C698.992 276.137 645.933 329.196 580.481 329.196C515.03 329.196 461.971 276.137 461.971 210.685L461.971 54.866C461.971 53.654 462.953 52.6714 464.165 52.6714L696.797 52.6714C698.009 52.6714 698.992 53.654 698.992 54.8661L698.992 210.685Z" fill="#EA5548"/>
<path d="M533.073 186.978L564.675 186.978L564.675 218.58L533.073 218.58L533.073 218.582L625.685 218.582C626.897 218.582 627.88 217.6 627.88 216.388L627.88 155.378L596.284 155.378L596.284 123.776L535.267 123.776C534.055 123.776 533.073 124.758 533.073 125.971L533.073 186.978ZM596.281 184.787C596.281 185.999 595.299 186.982 594.087 186.982L564.678 186.982L564.678 157.574C564.678 156.362 565.661 155.379 566.873 155.379L596.281 155.379L596.281 184.787Z" fill="#2E110E"/>
<path fill-rule="evenodd" clip-rule="evenodd" d="M598.478 92.1796C597.266 92.1796 596.283 93.1622 596.283 94.3743L596.283 123.782L625.691 123.782C626.903 123.782 627.886 124.764 627.886 125.976L627.886 155.384L657.294 155.384C658.506 155.384 659.488 154.401 659.488 153.189L659.488 94.3743C659.488 93.1622 658.506 92.1797 657.294 92.1797L598.478 92.1796Z" fill="#2E110E"/>
<path fill-rule="evenodd" clip-rule="evenodd" d="M562.485 250.191C563.697 250.191 564.679 249.209 564.679 247.997L564.679 218.589L535.271 218.589C534.059 218.589 533.077 217.607 533.077 216.395L533.077 186.987L503.669 186.987C502.457 186.987 501.474 187.97 501.474 189.182L501.474 247.997C501.474 249.209 502.457 250.191 503.669 250.191L562.485 250.191Z" fill="#2E110E"/>
</svg>
