<svg width="290" height="330" viewBox="0 0 290 330" fill="none" xmlns="http://www.w3.org/2000/svg">
<path d="M289.692 158.014C289.692 223.466 236.633 276.525 171.182 276.525C105.73 276.525 52.6714 223.466 52.6714 158.014L52.6714 2.19464C52.6714 0.982574 53.654 1.71799e-07 54.8661 3.83723e-07L287.498 4.10583e-05C288.71 4.12703e-05 289.692 0.982615 289.692 2.19468L289.692 158.014Z" fill="#2E110E"/>
<path d="M272.135 175.571C272.135 241.023 219.076 294.082 153.625 294.082C88.1732 294.082 35.1143 241.023 35.1143 175.571L35.1143 19.7518C35.1143 18.5397 36.0969 17.5571 37.309 17.5571L269.941 17.5572C271.153 17.5572 272.135 18.5397 272.135 19.7518L272.135 175.571Z" fill="#5D221C"/>
<path d="M254.578 193.128C254.578 258.58 201.519 311.639 136.068 311.639C70.6161 311.639 17.5571 258.58 17.5572 193.128L17.5572 37.3089C17.5572 36.0968 18.5398 35.1143 19.7518 35.1143L252.384 35.1143C253.596 35.1143 254.578 36.0969 254.578 37.3089L254.578 193.128Z" fill="#A33B32"/>
<path d="M237.021 210.685C237.021 276.137 183.962 329.196 118.511 329.196C53.059 329.196 1.84865e-05 276.137 2.99304e-05 210.685L5.71747e-05 54.866C5.73866e-05 53.654 0.982631 52.6714 2.1947 52.6714L234.826 52.6714C236.039 52.6714 237.021 53.654 237.021 54.8661L237.021 210.685Z" fill="#EA5548"/>
<path d="M71.1019 186.978L102.705 186.978L102.705 218.58L71.1018 218.58L71.1018 218.582L163.715 218.582C164.927 218.582 165.909 217.6 165.909 216.388L165.909 155.378L134.314 155.378L134.314 123.776L73.2965 123.776C72.0844 123.776 71.1019 124.758 71.1019 125.971L71.1019 186.978ZM134.311 184.787C134.311 185.999 133.328 186.982 132.116 186.982L102.708 186.982L102.708 157.574C102.708 156.362 103.69 155.379 104.902 155.379L134.311 155.379L134.311 184.787Z" fill="#2E110E"/>
<path fill-rule="evenodd" clip-rule="evenodd" d="M136.507 92.1796C135.295 92.1796 134.312 93.1622 134.312 94.3743L134.312 123.782L163.72 123.782C164.932 123.782 165.915 124.764 165.915 125.976L165.915 155.384L195.323 155.384C196.535 155.384 197.518 154.401 197.518 153.189L197.518 94.3743C197.518 93.1622 196.535 92.1797 195.323 92.1797L136.507 92.1796Z" fill="#2E110E"/>
<path fill-rule="evenodd" clip-rule="evenodd" d="M100.514 250.192C101.726 250.192 102.709 249.209 102.709 247.997L102.709 218.59L73.3007 218.59C72.0886 218.59 71.1061 217.607 71.1061 216.395L71.1061 186.988L41.6981 186.988C40.486 186.988 39.5035 187.97 39.5035 189.182L39.5035 247.997C39.5035 249.209 40.486 250.192 41.6981 250.192L100.514 250.192Z" fill="#2E110E"/>
</svg>
